# xmcd
#
# Track frame offsets:
#	150
#	13140
#	22729
#	35897
#	47981
#	59050
#	71705
#	88467
#	101797
#	113906
#	127099
#	140097
#	152553
#	167101
#
# Disc length: 2398 seconds
#
# Revision: 1
# Processed by: cddbd v1.5.1PL0 Copyright (c) Steve Scherf et al.
# Submitted via: audiograbber 1.83.01
#
DISCID=d6095c0e
DTITLE=Tião Carreiro e Pardinho - Navalha na carne
DYEAR=1900
DGENRE=Sertanejo Raiz
TTITLE0=Vento Lento (Veneno Lento) - Balanço
TTITLE1=Fonte dos Prazeres - Tango
TTITLE2=Nossas Vidas - Guarânia
TTITLE3=Romance Proibido - Balanço
TTITLE4=Ambiciosa - Guarânia
TTITLE5=Preto Velho - Toada
TTITLE6=Mundo Velho - Cururú
TTITLE7=Navalha na Carne - Pagode
TTITLE8=Veneno da Mentira - Cururú
TTITLE9=Nó Cego - Pagode
TTITLE10=Cruz Pesada - Cururú
TTITLE11=Tudo é Beleza - Pagode
TTITLE12=Prá Tudo se dá Jeito - Pagode
TTITLE13=Suspiro da Viúva - Pagode
EXTD=
EXTT0=
EXTT1=
EXTT2=
EXTT3=
EXTT4=
EXTT5=
EXTT6=
EXTT7=
EXTT8=
EXTT9=
EXTT10=
EXTT11=
EXTT12=
EXTT13=
PLAYORDER=
